<mxfile host="Electron" modified="2024-06-28T20:15:00.159Z" agent="Mozilla/5.0 (Windows NT 10.0; Win64; x64) AppleWebKit/537.36 (KHTML, like Gecko) draw.io/24.6.4 Chrome/124.0.6367.207 Electron/30.0.6 Safari/537.36" etag="Ok-E9Vr7zz425D5au_Ym" version="24.6.4" type="device">
  <diagram name="Page-1" id="9f46799a-70d6-7492-0946-bef42562c5a5">
    <mxGraphModel dx="2314" dy="1196" grid="1" gridSize="10" guides="1" tooltips="1" connect="1" arrows="1" fold="1" page="1" pageScale="1" pageWidth="1100" pageHeight="850" background="none" math="0" shadow="0">
      <root>
        <mxCell id="0" />
        <mxCell id="1" parent="0" />
        <mxCell id="78961159f06e98e8-56" value="Template" style="swimlane;html=1;fontStyle=1;align=center;verticalAlign=top;childLayout=stackLayout;horizontal=1;startSize=26;horizontalStack=0;resizeParent=1;resizeLast=0;collapsible=1;marginBottom=0;swimlaneFillColor=#ffffff;rounded=0;shadow=0;comic=0;labelBackgroundColor=none;strokeWidth=1;fillColor=none;fontFamily=Verdana;fontSize=12" parent="1" vertex="1">
          <mxGeometry x="200" y="110.00000000000006" width="160" height="300" as="geometry">
            <mxRectangle x="200" y="110.00000000000006" width="100" height="30" as="alternateBounds" />
          </mxGeometry>
        </mxCell>
        <mxCell id="bA9OxCk4fE2Fj404a3EQ-9" value="" style="endArrow=none;dashed=1;html=1;rounded=0;exitX=0.5;exitY=1;exitDx=0;exitDy=0;" parent="78961159f06e98e8-56" source="78961159f06e98e8-56" edge="1">
          <mxGeometry width="50" height="50" relative="1" as="geometry">
            <mxPoint x="280" y="410.00000000000006" as="sourcePoint" />
            <mxPoint x="80" y="29.999999999999943" as="targetPoint" />
          </mxGeometry>
        </mxCell>
        <mxCell id="bA9OxCk4fE2Fj404a3EQ-31" value="Delete Note" style="html=1;verticalAlign=bottom;endArrow=open;dashed=1;endSize=8;curved=0;rounded=0;" parent="78961159f06e98e8-56" edge="1">
          <mxGeometry x="0.3913" relative="1" as="geometry">
            <mxPoint y="69.75999999999993" as="sourcePoint" />
            <mxPoint x="230" y="69.75999999999993" as="targetPoint" />
            <mxPoint as="offset" />
          </mxGeometry>
        </mxCell>
        <mxCell id="bA9OxCk4fE2Fj404a3EQ-4" style="edgeStyle=orthogonalEdgeStyle;rounded=0;orthogonalLoop=1;jettySize=auto;html=1;exitX=0.5;exitY=0.5;exitDx=0;exitDy=0;exitPerimeter=0;entryX=0;entryY=0.5;entryDx=0;entryDy=0;" parent="1" source="bA9OxCk4fE2Fj404a3EQ-1" target="78961159f06e98e8-56" edge="1">
          <mxGeometry relative="1" as="geometry" />
        </mxCell>
        <mxCell id="bA9OxCk4fE2Fj404a3EQ-1" value="User" style="shape=umlActor;verticalLabelPosition=bottom;verticalAlign=top;html=1;outlineConnect=0;" parent="1" vertex="1">
          <mxGeometry x="100" y="150" width="30" height="60" as="geometry" />
        </mxCell>
        <mxCell id="bA9OxCk4fE2Fj404a3EQ-10" value="" style="rounded=0;whiteSpace=wrap;html=1;rotation=90;fillColor=#dae8fc;strokeColor=#6c8ebf;" parent="1" vertex="1">
          <mxGeometry x="161.25" y="258.75" width="237.5" height="30" as="geometry" />
        </mxCell>
        <mxCell id="bA9OxCk4fE2Fj404a3EQ-15" value="To-do List View" style="swimlane;html=1;fontStyle=1;align=center;verticalAlign=top;childLayout=stackLayout;horizontal=1;startSize=26;horizontalStack=0;resizeParent=1;resizeLast=0;collapsible=1;marginBottom=0;swimlaneFillColor=#ffffff;rounded=0;shadow=0;comic=0;labelBackgroundColor=none;strokeWidth=1;fillColor=none;fontFamily=Verdana;fontSize=12" parent="1" vertex="1">
          <mxGeometry x="437.5" y="110.00000000000006" width="160" height="300" as="geometry">
            <mxRectangle x="200" y="110.00000000000006" width="100" height="30" as="alternateBounds" />
          </mxGeometry>
        </mxCell>
        <mxCell id="bA9OxCk4fE2Fj404a3EQ-16" value="" style="endArrow=none;dashed=1;html=1;rounded=0;exitX=0.5;exitY=1;exitDx=0;exitDy=0;" parent="bA9OxCk4fE2Fj404a3EQ-15" source="bA9OxCk4fE2Fj404a3EQ-15" edge="1">
          <mxGeometry width="50" height="50" relative="1" as="geometry">
            <mxPoint x="280" y="410.00000000000006" as="sourcePoint" />
            <mxPoint x="80" y="29.999999999999943" as="targetPoint" />
          </mxGeometry>
        </mxCell>
        <mxCell id="bA9OxCk4fE2Fj404a3EQ-28" value="Remove Note Response" style="html=1;verticalAlign=bottom;endArrow=open;dashed=1;endSize=8;curved=0;rounded=0;" parent="bA9OxCk4fE2Fj404a3EQ-15" edge="1">
          <mxGeometry x="0.3265" y="-10" relative="1" as="geometry">
            <mxPoint x="160" y="220.43999999999994" as="sourcePoint" />
            <mxPoint x="-77.5" y="219.99999999999994" as="targetPoint" />
            <mxPoint as="offset" />
          </mxGeometry>
        </mxCell>
        <mxCell id="bA9OxCk4fE2Fj404a3EQ-17" value="" style="rounded=0;whiteSpace=wrap;html=1;rotation=90;fillColor=#dae8fc;strokeColor=#6c8ebf;" parent="1" vertex="1">
          <mxGeometry x="420.95" y="236.56" width="193.12" height="30" as="geometry" />
        </mxCell>
        <mxCell id="bA9OxCk4fE2Fj404a3EQ-18" value="Database" style="swimlane;html=1;fontStyle=1;align=center;verticalAlign=top;childLayout=stackLayout;horizontal=1;startSize=26;horizontalStack=0;resizeParent=1;resizeLast=0;collapsible=1;marginBottom=0;swimlaneFillColor=#ffffff;rounded=0;shadow=0;comic=0;labelBackgroundColor=none;strokeWidth=1;fillColor=none;fontFamily=Verdana;fontSize=12" parent="1" vertex="1">
          <mxGeometry x="666.55" y="110.00000000000006" width="160" height="300" as="geometry">
            <mxRectangle x="200" y="110.00000000000006" width="100" height="30" as="alternateBounds" />
          </mxGeometry>
        </mxCell>
        <mxCell id="bA9OxCk4fE2Fj404a3EQ-19" value="" style="endArrow=none;dashed=1;html=1;rounded=0;exitX=0.5;exitY=1;exitDx=0;exitDy=0;" parent="bA9OxCk4fE2Fj404a3EQ-18" source="bA9OxCk4fE2Fj404a3EQ-18" edge="1">
          <mxGeometry width="50" height="50" relative="1" as="geometry">
            <mxPoint x="280" y="410.00000000000006" as="sourcePoint" />
            <mxPoint x="80" y="29.999999999999943" as="targetPoint" />
          </mxGeometry>
        </mxCell>
        <mxCell id="bA9OxCk4fE2Fj404a3EQ-24" value="" style="endArrow=none;dashed=1;html=1;rounded=0;" parent="bA9OxCk4fE2Fj404a3EQ-18" edge="1">
          <mxGeometry width="50" height="50" relative="1" as="geometry">
            <mxPoint x="133.45000000000005" y="159.99999999999994" as="sourcePoint" />
            <mxPoint x="133.45000000000005" y="109.99999999999994" as="targetPoint" />
          </mxGeometry>
        </mxCell>
        <mxCell id="bA9OxCk4fE2Fj404a3EQ-27" value="Update Database" style="html=1;verticalAlign=bottom;endArrow=open;dashed=1;endSize=8;curved=0;rounded=0;" parent="bA9OxCk4fE2Fj404a3EQ-18" edge="1">
          <mxGeometry x="0.2507" y="10" relative="1" as="geometry">
            <mxPoint y="109.99999999999994" as="sourcePoint" />
            <mxPoint x="133.45000000000005" y="109.99999999999994" as="targetPoint" />
            <mxPoint as="offset" />
          </mxGeometry>
        </mxCell>
        <mxCell id="bA9OxCk4fE2Fj404a3EQ-20" value="" style="rounded=0;whiteSpace=wrap;html=1;rotation=90;fillColor=#dae8fc;strokeColor=#6c8ebf;" parent="1" vertex="1">
          <mxGeometry x="702.46" y="250.52" width="88.2" height="30" as="geometry" />
        </mxCell>
        <mxCell id="bA9OxCk4fE2Fj404a3EQ-26" value="Acknowledge" style="html=1;verticalAlign=bottom;endArrow=open;dashed=1;endSize=8;curved=0;rounded=0;" parent="1" edge="1">
          <mxGeometry x="0.3829" y="-7" relative="1" as="geometry">
            <mxPoint x="800" y="267" as="sourcePoint" />
            <mxPoint x="597.4999999999999" y="266.56" as="targetPoint" />
            <mxPoint as="offset" />
          </mxGeometry>
        </mxCell>
        <mxCell id="bA9OxCk4fE2Fj404a3EQ-30" value="Remove Note" style="html=1;verticalAlign=bottom;endArrow=open;dashed=1;endSize=8;curved=0;rounded=0;" parent="1" edge="1">
          <mxGeometry x="0.3913" relative="1" as="geometry">
            <mxPoint x="440" y="200" as="sourcePoint" />
            <mxPoint x="670" y="200" as="targetPoint" />
            <mxPoint as="offset" />
          </mxGeometry>
        </mxCell>
      </root>
    </mxGraphModel>
  </diagram>
</mxfile>
